<?xml version="1.0" encoding="utf-8" ?>
<svg xmlns="http://www.w3.org/2000/svg" xmlns:ev="http://www.w3.org/2001/xml-events" xmlns:xlink="http://www.w3.org/1999/xlink" baseProfile="full" height="915.0px" version="1.1" width="3493.9px">
    <defs/>
    <g transform="translate(5,0)">
        <line fill="none" stroke="black" x1="5" x2="2947" y1="14.6" y2="14.6"/>
        <rect fill="#808000" height="19px" opacity="1" rx="10" ry="10" stroke="none" width="120px" x="14" y="5.0"/>
        <rect fill="#ff00ff" height="19px" opacity="1" rx="10" ry="10" stroke="none" width="70px" x="135" y="5.0"/>
        <rect fill="#00ffff" height="19px" opacity="1" rx="10" ry="10" stroke="none" width="179px" x="215" y="5.0"/>
        <rect fill="#800000" height="19px" opacity="1" rx="10" ry="10" stroke="none" width="271px" x="443" y="5.0"/>
        <rect fill="#000080" height="19px" opacity="1" rx="10" ry="10" stroke="none" width="194px" x="797" y="5.0"/>
        <rect fill="#ff0000" height="19px" opacity="1" rx="10" ry="10" stroke="none" width="143px" x="1042" y="5.0"/>
        <rect fill="#800080" height="19px" opacity="1" rx="10" ry="10" stroke="none" width="66px" x="1278" y="5.0"/>
        <rect fill="#008080" height="19px" opacity="1" rx="10" ry="10" stroke="none" width="53px" x="1644" y="5.0"/>
        <rect fill="#00ff00" height="19px" opacity="1" rx="10" ry="10" stroke="none" width="179px" x="1724" y="5.0"/>
        <rect fill="#ffff00" height="19px" opacity="1" rx="10" ry="10" stroke="none" width="61px" x="1988" y="5.0"/>
        <rect fill="#008000" height="19px" opacity="1" rx="10" ry="10" stroke="none" width="100px" x="2050" y="5.0"/>
        <rect fill="#000040" height="19px" opacity="1" rx="10" ry="10" stroke="none" width="143px" x="2161" y="5.0"/>
        <rect fill="#0000ff" height="19px" opacity="1" rx="10" ry="10" stroke="none" width="508px" x="2362" y="5.0"/>
        <line fill="none" stroke="black" x1="5" x2="3016" y1="36.8" y2="36.8"/>
        <rect fill="#808000" height="19px" opacity="1" rx="10" ry="10" stroke="none" width="114px" x="7" y="27.2"/>
        <rect fill="#ff00ff" height="19px" opacity="1" rx="10" ry="10" stroke="none" width="75px" x="121" y="27.2"/>
        <rect fill="#00ffff" height="19px" opacity="1" rx="10" ry="10" stroke="none" width="190px" x="198" y="27.2"/>
        <rect fill="#800000" height="19px" opacity="1" rx="10" ry="10" stroke="none" width="344px" x="391" y="27.2"/>
        <rect fill="#000080" height="19px" opacity="1" rx="10" ry="10" stroke="none" width="195px" x="816" y="27.2"/>
        <rect fill="#ff0000" height="19px" opacity="1" rx="10" ry="10" stroke="none" width="148px" x="1061" y="27.2"/>
        <rect fill="#800080" height="19px" opacity="1" rx="10" ry="10" stroke="none" width="62px" x="1299" y="27.2"/>
        <rect fill="#008080" height="19px" opacity="1" rx="10" ry="10" stroke="none" width="54px" x="1663" y="27.2"/>
        <rect fill="#00ff00" height="19px" opacity="1" rx="10" ry="10" stroke="none" width="194px" x="1733" y="27.2"/>
        <rect fill="#004000" height="19px" opacity="1" rx="10" ry="10" stroke="none" width="23px" x="1979" y="27.2"/>
        <rect fill="#ffff00" height="19px" opacity="1" rx="10" ry="10" stroke="none" width="62px" x="2011" y="27.2"/>
        <rect fill="#008000" height="19px" opacity="1" rx="10" ry="10" stroke="none" width="101px" x="2073" y="27.2"/>
        <rect fill="#000040" height="19px" opacity="1" rx="10" ry="10" stroke="none" width="242px" x="2184" y="27.2"/>
        <rect fill="#0000ff" height="19px" opacity="1" rx="10" ry="10" stroke="none" width="510px" x="2428" y="27.2"/>
        <line fill="none" stroke="black" x1="5" x2="3016" y1="59.0" y2="59.0"/>
        <rect fill="#808000" height="19px" opacity="1" rx="10" ry="10" stroke="none" width="114px" x="7" y="49.4"/>
        <rect fill="#ff00ff" height="19px" opacity="1" rx="10" ry="10" stroke="none" width="75px" x="121" y="49.4"/>
        <rect fill="#00ffff" height="19px" opacity="1" rx="10" ry="10" stroke="none" width="190px" x="198" y="49.4"/>
        <rect fill="#800000" height="19px" opacity="1" rx="10" ry="10" stroke="none" width="344px" x="391" y="49.4"/>
        <rect fill="#000080" height="19px" opacity="1" rx="10" ry="10" stroke="none" width="195px" x="816" y="49.4"/>
        <rect fill="#ff0000" height="19px" opacity="1" rx="10" ry="10" stroke="none" width="148px" x="1061" y="49.4"/>
        <rect fill="#800080" height="19px" opacity="1" rx="10" ry="10" stroke="none" width="62px" x="1299" y="49.4"/>
        <rect fill="#008080" height="19px" opacity="1" rx="10" ry="10" stroke="none" width="54px" x="1663" y="49.4"/>
        <rect fill="#00ff00" height="19px" opacity="1" rx="10" ry="10" stroke="none" width="194px" x="1733" y="49.4"/>
        <rect fill="#004000" height="19px" opacity="1" rx="10" ry="10" stroke="none" width="23px" x="1979" y="49.4"/>
        <rect fill="#ffff00" height="19px" opacity="1" rx="10" ry="10" stroke="none" width="62px" x="2011" y="49.4"/>
        <rect fill="#008000" height="19px" opacity="1" rx="10" ry="10" stroke="none" width="101px" x="2073" y="49.4"/>
        <rect fill="#000040" height="19px" opacity="1" rx="10" ry="10" stroke="none" width="242px" x="2184" y="49.4"/>
        <rect fill="#0000ff" height="19px" opacity="1" rx="10" ry="10" stroke="none" width="510px" x="2428" y="49.4"/>
        <line fill="none" stroke="black" x1="5" x2="3015" y1="81.19999999999999" y2="81.19999999999999"/>
        <rect fill="#808000" height="19px" opacity="1" rx="10" ry="10" stroke="none" width="114px" x="7" y="71.6"/>
        <rect fill="#ff00ff" height="19px" opacity="1" rx="10" ry="10" stroke="none" width="75px" x="121" y="71.6"/>
        <rect fill="#00ffff" height="19px" opacity="1" rx="10" ry="10" stroke="none" width="190px" x="198" y="71.6"/>
        <rect fill="#800000" height="19px" opacity="1" rx="10" ry="10" stroke="none" width="344px" x="391" y="71.6"/>
        <rect fill="#000080" height="19px" opacity="1" rx="10" ry="10" stroke="none" width="195px" x="816" y="71.6"/>
        <rect fill="#ff0000" height="19px" opacity="1" rx="10" ry="10" stroke="none" width="147px" x="1062" y="71.6"/>
        <rect fill="#008080" height="19px" opacity="1" rx="10" ry="10" stroke="none" width="54px" x="1663" y="71.6"/>
        <rect fill="#00ff00" height="19px" opacity="1" rx="10" ry="10" stroke="none" width="194px" x="1733" y="71.6"/>
        <rect fill="#004000" height="19px" opacity="1" rx="10" ry="10" stroke="none" width="23px" x="1979" y="71.6"/>
        <rect fill="#ffff00" height="19px" opacity="1" rx="10" ry="10" stroke="none" width="62px" x="2011" y="71.6"/>
        <rect fill="#008000" height="19px" opacity="1" rx="10" ry="10" stroke="none" width="101px" x="2073" y="71.6"/>
        <rect fill="#000040" height="19px" opacity="1" rx="10" ry="10" stroke="none" width="241px" x="2184" y="71.6"/>
        <rect fill="#0000ff" height="19px" opacity="1" rx="10" ry="10" stroke="none" width="511px" x="2427" y="71.6"/>
        <line fill="none" stroke="black" x1="5" x2="3013" y1="103.39999999999999" y2="103.39999999999999"/>
        <rect fill="#808000" height="19px" opacity="1" rx="10" ry="10" stroke="none" width="114px" x="7" y="93.8"/>
        <rect fill="#ff00ff" height="19px" opacity="1" rx="10" ry="10" stroke="none" width="75px" x="121" y="93.8"/>
        <rect fill="#00ffff" height="19px" opacity="1" rx="10" ry="10" stroke="none" width="189px" x="199" y="93.8"/>
        <rect fill="#800000" height="19px" opacity="1" rx="10" ry="10" stroke="none" width="344px" x="391" y="93.8"/>
        <rect fill="#000080" height="19px" opacity="1" rx="10" ry="10" stroke="none" width="195px" x="816" y="93.8"/>
        <rect fill="#ff0000" height="19px" opacity="1" rx="10" ry="10" stroke="none" width="147px" x="1062" y="93.8"/>
        <rect fill="#008080" height="19px" opacity="1" rx="10" ry="10" stroke="none" width="54px" x="1663" y="93.8"/>
        <rect fill="#00ff00" height="19px" opacity="1" rx="10" ry="10" stroke="none" width="193px" x="1734" y="93.8"/>
        <rect fill="#004000" height="19px" opacity="1" rx="10" ry="10" stroke="none" width="22px" x="1980" y="93.8"/>
        <rect fill="#ffff00" height="19px" opacity="1" rx="10" ry="10" stroke="none" width="62px" x="2011" y="93.8"/>
        <rect fill="#008000" height="19px" opacity="1" rx="10" ry="10" stroke="none" width="101px" x="2073" y="93.8"/>
        <rect fill="#000040" height="19px" opacity="1" rx="10" ry="10" stroke="none" width="239px" x="2184" y="93.8"/>
        <rect fill="#0000ff" height="19px" opacity="1" rx="10" ry="10" stroke="none" width="511px" x="2425" y="93.8"/>
        <line fill="none" stroke="black" x1="5" x2="3019" y1="125.6" y2="125.6"/>
        <rect fill="#808000" height="19px" opacity="1" rx="10" ry="10" stroke="none" width="113px" x="7" y="116.0"/>
        <rect fill="#ff00ff" height="19px" opacity="1" rx="10" ry="10" stroke="none" width="75px" x="121" y="116.0"/>
        <rect fill="#00ffff" height="19px" opacity="1" rx="10" ry="10" stroke="none" width="188px" x="200" y="116.0"/>
        <rect fill="#800000" height="19px" opacity="1" rx="10" ry="10" stroke="none" width="345px" x="391" y="116.0"/>
        <rect fill="#000080" height="19px" opacity="1" rx="10" ry="10" stroke="none" width="195px" x="817" y="116.0"/>
        <rect fill="#ff0000" height="19px" opacity="1" rx="10" ry="10" stroke="none" width="148px" x="1062" y="116.0"/>
        <rect fill="#008080" height="19px" opacity="1" rx="10" ry="10" stroke="none" width="54px" x="1664" y="116.0"/>
        <rect fill="#00ff00" height="19px" opacity="1" rx="10" ry="10" stroke="none" width="193px" x="1735" y="116.0"/>
        <rect fill="#004000" height="19px" opacity="1" rx="10" ry="10" stroke="none" width="23px" x="1980" y="116.0"/>
        <rect fill="#ffff00" height="19px" opacity="1" rx="10" ry="10" stroke="none" width="62px" x="2012" y="116.0"/>
        <rect fill="#008000" height="19px" opacity="1" rx="10" ry="10" stroke="none" width="101px" x="2074" y="116.0"/>
        <rect fill="#000040" height="19px" opacity="1" rx="10" ry="10" stroke="none" width="244px" x="2185" y="116.0"/>
        <rect fill="#0000ff" height="19px" opacity="1" rx="10" ry="10" stroke="none" width="511px" x="2431" y="116.0"/>
        <line fill="none" stroke="black" x1="5" x2="3023" y1="147.79999999999998" y2="147.79999999999998"/>
        <rect fill="#808000" height="19px" opacity="1" rx="10" ry="10" stroke="none" width="114px" x="7" y="138.2"/>
        <rect fill="#ff00ff" height="19px" opacity="1" rx="10" ry="10" stroke="none" width="75px" x="121" y="138.2"/>
        <rect fill="#00ffff" height="19px" opacity="1" rx="10" ry="10" stroke="none" width="187px" x="201" y="138.2"/>
        <rect fill="#800000" height="19px" opacity="1" rx="10" ry="10" stroke="none" width="344px" x="395" y="138.2"/>
        <rect fill="#000080" height="19px" opacity="1" rx="10" ry="10" stroke="none" width="195px" x="820" y="138.2"/>
        <rect fill="#ff0000" height="19px" opacity="1" rx="10" ry="10" stroke="none" width="148px" x="1065" y="138.2"/>
        <rect fill="#008080" height="19px" opacity="1" rx="10" ry="10" stroke="none" width="54px" x="1667" y="138.2"/>
        <rect fill="#00ff00" height="19px" opacity="1" rx="10" ry="10" stroke="none" width="193px" x="1738" y="138.2"/>
        <rect fill="#004000" height="19px" opacity="1" rx="10" ry="10" stroke="none" width="22px" x="1984" y="138.2"/>
        <rect fill="#ffff00" height="19px" opacity="1" rx="10" ry="10" stroke="none" width="62px" x="2015" y="138.2"/>
        <rect fill="#008000" height="19px" opacity="1" rx="10" ry="10" stroke="none" width="101px" x="2077" y="138.2"/>
        <rect fill="#000040" height="19px" opacity="1" rx="10" ry="10" stroke="none" width="245px" x="2188" y="138.2"/>
        <rect fill="#0000ff" height="19px" opacity="1" rx="10" ry="10" stroke="none" width="511px" x="2435" y="138.2"/>
        <line fill="none" stroke="black" x1="5" x2="3027" y1="170.0" y2="170.0"/>
        <rect fill="#808000" height="19px" opacity="1" rx="10" ry="10" stroke="none" width="114px" x="7" y="160.4"/>
        <rect fill="#ff00ff" height="19px" opacity="1" rx="10" ry="10" stroke="none" width="75px" x="121" y="160.4"/>
        <rect fill="#00ffff" height="19px" opacity="1" rx="10" ry="10" stroke="none" width="188px" x="200" y="160.4"/>
        <rect fill="#800000" height="19px" opacity="1" rx="10" ry="10" stroke="none" width="345px" x="393" y="160.4"/>
        <rect fill="#000080" height="19px" opacity="1" rx="10" ry="10" stroke="none" width="193px" x="822" y="160.4"/>
        <rect fill="#ff0000" height="19px" opacity="1" rx="10" ry="10" stroke="none" width="148px" x="1065" y="160.4"/>
        <rect fill="#800080" height="19px" opacity="1" rx="10" ry="10" stroke="none" width="62px" x="1303" y="160.4"/>
        <rect fill="#008080" height="19px" opacity="1" rx="10" ry="10" stroke="none" width="54px" x="1667" y="160.4"/>
        <rect fill="#00ff00" height="19px" opacity="1" rx="10" ry="10" stroke="none" width="193px" x="1738" y="160.4"/>
        <rect fill="#004000" height="19px" opacity="1" rx="10" ry="10" stroke="none" width="23px" x="1983" y="160.4"/>
        <rect fill="#ffff00" height="19px" opacity="1" rx="10" ry="10" stroke="none" width="62px" x="2015" y="160.4"/>
        <rect fill="#008000" height="19px" opacity="1" rx="10" ry="10" stroke="none" width="101px" x="2077" y="160.4"/>
        <rect fill="#000040" height="19px" opacity="1" rx="10" ry="10" stroke="none" width="248px" x="2189" y="160.4"/>
        <rect fill="#0000ff" height="19px" opacity="1" rx="10" ry="10" stroke="none" width="511px" x="2439" y="160.4"/>
        <line fill="none" stroke="black" x1="5" x2="3026" y1="192.2" y2="192.2"/>
        <rect fill="#808000" height="19px" opacity="1" rx="10" ry="10" stroke="none" width="114px" x="7" y="182.6"/>
        <rect fill="#ff00ff" height="19px" opacity="1" rx="10" ry="10" stroke="none" width="74px" x="121" y="182.6"/>
        <rect fill="#00ffff" height="19px" opacity="1" rx="10" ry="10" stroke="none" width="189px" x="199" y="182.6"/>
        <rect fill="#800000" height="19px" opacity="1" rx="10" ry="10" stroke="none" width="349px" x="392" y="182.6"/>
        <rect fill="#000080" height="19px" opacity="1" rx="10" ry="10" stroke="none" width="193px" x="824" y="182.6"/>
        <rect fill="#ff0000" height="19px" opacity="1" rx="10" ry="10" stroke="none" width="148px" x="1067" y="182.6"/>
        <rect fill="#800080" height="19px" opacity="1" rx="10" ry="10" stroke="none" width="68px" x="1305" y="182.6"/>
        <rect fill="#008080" height="19px" opacity="1" rx="10" ry="10" stroke="none" width="54px" x="1669" y="182.6"/>
        <rect fill="#00ff00" height="19px" opacity="1" rx="10" ry="10" stroke="none" width="193px" x="1740" y="182.6"/>
        <rect fill="#004000" height="19px" opacity="1" rx="10" ry="10" stroke="none" width="21px" x="1987" y="182.6"/>
        <rect fill="#ffff00" height="19px" opacity="1" rx="10" ry="10" stroke="none" width="62px" x="2017" y="182.6"/>
        <rect fill="#008000" height="19px" opacity="1" rx="10" ry="10" stroke="none" width="101px" x="2079" y="182.6"/>
        <rect fill="#000040" height="19px" opacity="1" rx="10" ry="10" stroke="none" width="246px" x="2190" y="182.6"/>
        <rect fill="#0000ff" height="19px" opacity="1" rx="10" ry="10" stroke="none" width="511px" x="2438" y="182.6"/>
        <line fill="none" stroke="black" x1="5" x2="3024" y1="214.39999999999998" y2="214.39999999999998"/>
        <rect fill="#808000" height="19px" opacity="1" rx="10" ry="10" stroke="none" width="114px" x="7" y="204.79999999999998"/>
        <rect fill="#ff00ff" height="19px" opacity="1" rx="10" ry="10" stroke="none" width="74px" x="121" y="204.79999999999998"/>
        <rect fill="#00ffff" height="19px" opacity="1" rx="10" ry="10" stroke="none" width="189px" x="199" y="204.79999999999998"/>
        <rect fill="#800000" height="19px" opacity="1" rx="10" ry="10" stroke="none" width="348px" x="392" y="204.79999999999998"/>
        <rect fill="#000080" height="19px" opacity="1" rx="10" ry="10" stroke="none" width="192px" x="824" y="204.79999999999998"/>
        <rect fill="#ff0000" height="19px" opacity="1" rx="10" ry="10" stroke="none" width="148px" x="1066" y="204.79999999999998"/>
        <rect fill="#800080" height="19px" opacity="1" rx="10" ry="10" stroke="none" width="68px" x="1304" y="204.79999999999998"/>
        <rect fill="#008080" height="19px" opacity="1" rx="10" ry="10" stroke="none" width="54px" x="1668" y="204.79999999999998"/>
        <rect fill="#00ff00" height="19px" opacity="1" rx="10" ry="10" stroke="none" width="193px" x="1739" y="204.79999999999998"/>
        <rect fill="#004000" height="19px" opacity="1" rx="10" ry="10" stroke="none" width="22px" x="1984" y="204.79999999999998"/>
        <rect fill="#ffff00" height="19px" opacity="1" rx="10" ry="10" stroke="none" width="62px" x="2016" y="204.79999999999998"/>
        <rect fill="#008000" height="19px" opacity="1" rx="10" ry="10" stroke="none" width="101px" x="2078" y="204.79999999999998"/>
        <rect fill="#000040" height="19px" opacity="1" rx="10" ry="10" stroke="none" width="245px" x="2189" y="204.79999999999998"/>
        <rect fill="#0000ff" height="19px" opacity="1" rx="10" ry="10" stroke="none" width="511px" x="2436" y="204.79999999999998"/>
        <line fill="none" stroke="black" x1="5" x2="3038" y1="236.6" y2="236.6"/>
        <rect fill="#808000" height="19px" opacity="1" rx="10" ry="10" stroke="none" width="114px" x="7" y="227.0"/>
        <rect fill="#ff00ff" height="19px" opacity="1" rx="10" ry="10" stroke="none" width="75px" x="121" y="227.0"/>
        <rect fill="#00ffff" height="19px" opacity="1" rx="10" ry="10" stroke="none" width="190px" x="198" y="227.0"/>
        <rect fill="#800000" height="19px" opacity="1" rx="10" ry="10" stroke="none" width="348px" x="391" y="227.0"/>
        <rect fill="#000080" height="19px" opacity="1" rx="10" ry="10" stroke="none" width="195px" x="820" y="227.0"/>
        <rect fill="#ff0000" height="19px" opacity="1" rx="10" ry="10" stroke="none" width="147px" x="1065" y="227.0"/>
        <rect fill="#008080" height="19px" opacity="1" rx="10" ry="10" stroke="none" width="54px" x="1667" y="227.0"/>
        <rect fill="#00ff00" height="19px" opacity="1" rx="10" ry="10" stroke="none" width="193px" x="1738" y="227.0"/>
        <rect fill="#004000" height="19px" opacity="1" rx="10" ry="10" stroke="none" width="22px" x="1983" y="227.0"/>
        <rect fill="#ffff00" height="19px" opacity="1" rx="10" ry="10" stroke="none" width="61px" x="2015" y="227.0"/>
        <rect fill="#008000" height="19px" opacity="1" rx="10" ry="10" stroke="none" width="100px" x="2077" y="227.0"/>
        <rect fill="#000040" height="19px" opacity="1" rx="10" ry="10" stroke="none" width="223px" x="2188" y="227.0"/>
        <rect fill="#0000ff" height="19px" opacity="1" rx="10" ry="10" stroke="none" width="511px" x="2450" y="227.0"/>
        <line fill="none" stroke="black" x1="5" x2="3038" y1="258.8" y2="258.8"/>
        <rect fill="#808000" height="19px" opacity="1" rx="10" ry="10" stroke="none" width="114px" x="7" y="249.2"/>
        <rect fill="#ff00ff" height="19px" opacity="1" rx="10" ry="10" stroke="none" width="75px" x="121" y="249.2"/>
        <rect fill="#00ffff" height="19px" opacity="1" rx="10" ry="10" stroke="none" width="190px" x="198" y="249.2"/>
        <rect fill="#800000" height="19px" opacity="1" rx="10" ry="10" stroke="none" width="347px" x="392" y="249.2"/>
        <rect fill="#000080" height="19px" opacity="1" rx="10" ry="10" stroke="none" width="195px" x="820" y="249.2"/>
        <rect fill="#ff0000" height="19px" opacity="1" rx="10" ry="10" stroke="none" width="146px" x="1066" y="249.2"/>
        <rect fill="#800080" height="19px" opacity="1" rx="10" ry="10" stroke="none" width="71px" x="1300" y="249.2"/>
        <rect fill="#008080" height="19px" opacity="1" rx="10" ry="10" stroke="none" width="54px" x="1667" y="249.2"/>
        <rect fill="#00ff00" height="19px" opacity="1" rx="10" ry="10" stroke="none" width="193px" x="1738" y="249.2"/>
        <rect fill="#004000" height="19px" opacity="1" rx="10" ry="10" stroke="none" width="23px" x="1983" y="249.2"/>
        <rect fill="#ffff00" height="19px" opacity="1" rx="10" ry="10" stroke="none" width="61px" x="2015" y="249.2"/>
        <rect fill="#008000" height="19px" opacity="1" rx="10" ry="10" stroke="none" width="100px" x="2077" y="249.2"/>
        <rect fill="#000040" height="19px" opacity="1" rx="10" ry="10" stroke="none" width="222px" x="2188" y="249.2"/>
        <rect fill="#0000ff" height="19px" opacity="1" rx="10" ry="10" stroke="none" width="511px" x="2450" y="249.2"/>
        <line fill="none" stroke="black" x1="5" x2="3018" y1="281.0" y2="281.0"/>
        <rect fill="#808000" height="19px" opacity="1" rx="10" ry="10" stroke="none" width="114px" x="7" y="271.4"/>
        <rect fill="#ff00ff" height="19px" opacity="1" rx="10" ry="10" stroke="none" width="75px" x="121" y="271.4"/>
        <rect fill="#00ffff" height="19px" opacity="1" rx="10" ry="10" stroke="none" width="190px" x="198" y="271.4"/>
        <rect fill="#800000" height="19px" opacity="1" rx="10" ry="10" stroke="none" width="346px" x="393" y="271.4"/>
        <rect fill="#000080" height="19px" opacity="1" rx="10" ry="10" stroke="none" width="195px" x="820" y="271.4"/>
        <rect fill="#ff0000" height="19px" opacity="1" rx="10" ry="10" stroke="none" width="147px" x="1065" y="271.4"/>
        <rect fill="#008080" height="19px" opacity="1" rx="10" ry="10" stroke="none" width="54px" x="1667" y="271.4"/>
        <rect fill="#00ff00" height="19px" opacity="1" rx="10" ry="10" stroke="none" width="193px" x="1738" y="271.4"/>
        <rect fill="#004000" height="19px" opacity="1" rx="10" ry="10" stroke="none" width="23px" x="1983" y="271.4"/>
        <rect fill="#ffff00" height="19px" opacity="1" rx="10" ry="10" stroke="none" width="62px" x="2015" y="271.4"/>
        <rect fill="#008000" height="19px" opacity="1" rx="10" ry="10" stroke="none" width="101px" x="2077" y="271.4"/>
        <rect fill="#000040" height="19px" opacity="1" rx="10" ry="10" stroke="none" width="240px" x="2188" y="271.4"/>
        <rect fill="#0000ff" height="19px" opacity="1" rx="10" ry="10" stroke="none" width="509px" x="2430" y="271.4"/>
        <line fill="none" stroke="black" x1="5" x2="3029" y1="303.2" y2="303.2"/>
        <rect fill="#ff00ff" height="19px" opacity="1" rx="10" ry="10" stroke="none" width="68px" x="124" y="293.59999999999997"/>
        <rect fill="#00ffff" height="19px" opacity="1" rx="10" ry="10" stroke="none" width="176px" x="207" y="293.59999999999997"/>
        <rect fill="#800000" height="19px" opacity="1" rx="10" ry="10" stroke="none" width="219px" x="475" y="293.59999999999997"/>
        <rect fill="#000080" height="19px" opacity="1" rx="10" ry="10" stroke="none" width="187px" x="787" y="293.59999999999997"/>
        <rect fill="#ff0000" height="19px" opacity="1" rx="10" ry="10" stroke="none" width="143px" x="1024" y="293.59999999999997"/>
        <rect fill="#800080" height="19px" opacity="1" rx="10" ry="10" stroke="none" width="64px" x="1260" y="293.59999999999997"/>
        <rect fill="#00ff00" height="19px" opacity="1" rx="10" ry="10" stroke="none" width="175px" x="1709" y="293.59999999999997"/>
        <rect fill="#ffff00" height="19px" opacity="1" rx="10" ry="10" stroke="none" width="51px" x="1969" y="293.59999999999997"/>
        <rect fill="#008000" height="19px" opacity="1" rx="10" ry="10" stroke="none" width="74px" x="2032" y="293.59999999999997"/>
        <rect fill="#0000ff" height="19px" opacity="1" rx="10" ry="10" stroke="none" width="507px" x="2444" y="293.59999999999997"/>
        <line fill="none" stroke="black" x1="5" x2="2976" y1="325.40000000000003" y2="325.40000000000003"/>
        <rect fill="#ff00ff" height="19px" opacity="1" rx="10" ry="10" stroke="none" width="72px" x="124" y="315.8"/>
        <rect fill="#00ffff" height="19px" opacity="1" rx="10" ry="10" stroke="none" width="175px" x="207" y="315.8"/>
        <rect fill="#800000" height="19px" opacity="1" rx="10" ry="10" stroke="none" width="226px" x="465" y="315.8"/>
        <rect fill="#000080" height="19px" opacity="1" rx="10" ry="10" stroke="none" width="190px" x="779" y="315.8"/>
        <rect fill="#ff0000" height="19px" opacity="1" rx="10" ry="10" stroke="none" width="142px" x="1020" y="315.8"/>
        <rect fill="#800080" height="19px" opacity="1" rx="10" ry="10" stroke="none" width="67px" x="1252" y="315.8"/>
        <rect fill="#008080" height="19px" opacity="1" rx="10" ry="10" stroke="none" width="55px" x="1617" y="315.8"/>
        <rect fill="#00ff00" height="19px" opacity="1" rx="10" ry="10" stroke="none" width="187px" x="1693" y="315.8"/>
        <rect fill="#ffff00" height="19px" opacity="1" rx="10" ry="10" stroke="none" width="49px" x="1965" y="315.8"/>
        <rect fill="#008000" height="19px" opacity="1" rx="10" ry="10" stroke="none" width="90px" x="2028" y="315.8"/>
        <rect fill="#0000ff" height="19px" opacity="1" rx="10" ry="10" stroke="none" width="500px" x="2392" y="315.8"/>
        <line fill="none" stroke="black" x1="5" x2="2869" y1="347.6" y2="347.6"/>
        <rect fill="#ff00ff" height="19px" opacity="1" rx="10" ry="10" stroke="none" width="68px" x="89" y="338.0"/>
        <rect fill="#00ffff" height="19px" opacity="1" rx="10" ry="10" stroke="none" width="176px" x="173" y="338.0"/>
        <rect fill="#ff0000" height="19px" opacity="1" rx="10" ry="10" stroke="none" width="148px" x="975" y="338.0"/>
        <rect fill="#800080" height="19px" opacity="1" rx="10" ry="10" stroke="none" width="68px" x="1211" y="338.0"/>
        <rect fill="#008080" height="19px" opacity="1" rx="10" ry="10" stroke="none" width="50px" x="1571" y="338.0"/>
        <rect fill="#00ff00" height="19px" opacity="1" rx="10" ry="10" stroke="none" width="196px" x="1622" y="338.0"/>
        <rect fill="#004000" height="19px" opacity="1" rx="10" ry="10" stroke="none" width="23px" x="1871" y="338.0"/>
        <rect fill="#ffff00" height="19px" opacity="1" rx="10" ry="10" stroke="none" width="59px" x="1906" y="338.0"/>
        <rect fill="#008000" height="19px" opacity="1" rx="10" ry="10" stroke="none" width="94px" x="1968" y="338.0"/>
        <rect fill="#0000ff" height="19px" opacity="1" rx="10" ry="10" stroke="none" width="507px" x="2282" y="338.0"/>
        <line fill="none" stroke="black" x1="5" x2="3340" y1="369.8" y2="369.8"/>
        <rect fill="#00ffff" height="19px" opacity="1" rx="10" ry="10" stroke="none" width="178px" x="211" y="360.2"/>
        <rect fill="#000080" height="19px" opacity="1" rx="10" ry="10" stroke="none" width="75px" x="839" y="360.2"/>
        <rect fill="#ff0000" height="19px" opacity="1" rx="10" ry="10" stroke="none" width="142px" x="962" y="360.2"/>
        <rect fill="#800080" height="19px" opacity="1" rx="10" ry="10" stroke="none" width="63px" x="1200" y="360.2"/>
        <rect fill="#00ff00" height="19px" opacity="1" rx="10" ry="10" stroke="none" width="163px" x="1653" y="360.2"/>
        <rect fill="#008000" height="19px" opacity="1" rx="10" ry="10" stroke="none" width="79px" x="1967" y="360.2"/>
        <rect fill="#0000ff" height="19px" opacity="1" rx="10" ry="10" stroke="none" width="487px" x="2769" y="360.2"/>
        <line fill="none" stroke="black" x1="5" x2="2906" y1="392.0" y2="392.0"/>
        <rect fill="#ff00ff" height="19px" opacity="1" rx="10" ry="10" stroke="none" width="70px" x="94" y="382.4"/>
        <rect fill="#00ffff" height="19px" opacity="1" rx="10" ry="10" stroke="none" width="184px" x="179" y="382.4"/>
        <rect fill="#000080" height="19px" opacity="1" rx="10" ry="10" stroke="none" width="162px" x="725" y="382.4"/>
        <rect fill="#ff0000" height="19px" opacity="1" rx="10" ry="10" stroke="none" width="144px" x="936" y="382.4"/>
        <rect fill="#800080" height="19px" opacity="1" rx="10" ry="10" stroke="none" width="63px" x="1173" y="382.4"/>
        <rect fill="#00ff00" height="19px" opacity="1" rx="10" ry="10" stroke="none" width="179px" x="1621" y="382.4"/>
        <rect fill="#0000ff" height="19px" opacity="1" rx="10" ry="10" stroke="none" width="513px" x="2312" y="382.4"/>
        <line fill="none" stroke="black" x1="5" x2="2753" y1="414.2" y2="414.2"/>
        <rect fill="#ff00ff" height="19px" opacity="1" rx="10" ry="10" stroke="none" width="68px" x="102" y="404.59999999999997"/>
        <rect fill="#00ffff" height="19px" opacity="1" rx="10" ry="10" stroke="none" width="181px" x="173" y="404.59999999999997"/>
        <rect fill="#ff0000" height="19px" opacity="1" rx="10" ry="10" stroke="none" width="142px" x="920" y="404.59999999999997"/>
        <rect fill="#00ff00" height="19px" opacity="1" rx="10" ry="10" stroke="none" width="159px" x="1607" y="404.59999999999997"/>
        <rect fill="#ffff00" height="19px" opacity="1" rx="10" ry="10" stroke="none" width="59px" x="1852" y="404.59999999999997"/>
        <rect fill="#0000ff" height="19px" opacity="1" rx="10" ry="10" stroke="none" width="478px" x="2197" y="404.59999999999997"/>
        <line fill="none" stroke="black" x1="5" x2="2860" y1="436.40000000000003" y2="436.40000000000003"/>
        <rect fill="#ff00ff" height="19px" opacity="1" rx="10" ry="10" stroke="none" width="70px" x="80" y="426.8"/>
        <rect fill="#00ffff" height="19px" opacity="1" rx="10" ry="10" stroke="none" width="180px" x="152" y="426.8"/>
        <rect fill="#ff0000" height="19px" opacity="1" rx="10" ry="10" stroke="none" width="139px" x="901" y="426.8"/>
        <rect fill="#00ff00" height="19px" opacity="1" rx="10" ry="10" stroke="none" width="160px" x="1587" y="426.8"/>
        <rect fill="#ffff00" height="19px" opacity="1" rx="10" ry="10" stroke="none" width="49px" x="1833" y="426.8"/>
        <rect fill="#0000ff" height="19px" opacity="1" rx="10" ry="10" stroke="none" width="484px" x="2292" y="426.8"/>
        <line fill="none" stroke="black" x1="5" x2="2996" y1="458.6" y2="458.6"/>
        <rect fill="#ff00ff" height="19px" opacity="1" rx="10" ry="10" stroke="none" width="55px" x="142" y="449.0"/>
        <rect fill="#00ffff" height="19px" opacity="1" rx="10" ry="10" stroke="none" width="180px" x="270" y="449.0"/>
        <rect fill="#ff0000" height="19px" opacity="1" rx="10" ry="10" stroke="none" width="144px" x="1011" y="449.0"/>
        <rect fill="#00ff00" height="19px" opacity="1" rx="10" ry="10" stroke="none" width="166px" x="1692" y="449.0"/>
        <rect fill="#ffff00" height="19px" opacity="1" rx="10" ry="10" stroke="none" width="54px" x="1946" y="449.0"/>
        <rect fill="#0000ff" height="19px" opacity="1" rx="10" ry="10" stroke="none" width="470px" x="2442" y="449.0"/>
        <line fill="none" stroke="black" x1="5" x2="2963" y1="480.8" y2="480.8"/>
        <rect fill="#ff00ff" height="19px" opacity="1" rx="10" ry="10" stroke="none" width="55px" x="109" y="471.2"/>
        <rect fill="#00ffff" height="19px" opacity="1" rx="10" ry="10" stroke="none" width="180px" x="237" y="471.2"/>
        <rect fill="#ff0000" height="19px" opacity="1" rx="10" ry="10" stroke="none" width="144px" x="978" y="471.2"/>
        <rect fill="#00ff00" height="19px" opacity="1" rx="10" ry="10" stroke="none" width="166px" x="1659" y="471.2"/>
        <rect fill="#ffff00" height="19px" opacity="1" rx="10" ry="10" stroke="none" width="54px" x="1913" y="471.2"/>
        <rect fill="#0000ff" height="19px" opacity="1" rx="10" ry="10" stroke="none" width="470px" x="2409" y="471.2"/>
        <line fill="none" stroke="black" x1="5" x2="2860" y1="503.0" y2="503.0"/>
        <rect fill="#ff00ff" height="19px" opacity="1" rx="10" ry="10" stroke="none" width="66px" x="98" y="493.4"/>
        <rect fill="#00ffff" height="19px" opacity="1" rx="10" ry="10" stroke="none" width="180px" x="202" y="493.4"/>
        <rect fill="#ff0000" height="19px" opacity="1" rx="10" ry="10" stroke="none" width="137px" x="943" y="493.4"/>
        <rect fill="#00ff00" height="19px" opacity="1" rx="10" ry="10" stroke="none" width="185px" x="1597" y="493.4"/>
        <rect fill="#ffff00" height="19px" opacity="1" rx="10" ry="10" stroke="none" width="60px" x="1871" y="493.4"/>
        <rect fill="#0000ff" height="19px" opacity="1" rx="10" ry="10" stroke="none" width="494px" x="2284" y="493.4"/>
        <line fill="none" stroke="black" x1="5" x2="2786" y1="525.1999999999999" y2="525.1999999999999"/>
        <rect fill="#ff00ff" height="19px" opacity="1" rx="10" ry="10" stroke="none" width="59px" x="108" y="515.5999999999999"/>
        <rect fill="#00ffff" height="19px" opacity="1" rx="10" ry="10" stroke="none" width="176px" x="190" y="515.5999999999999"/>
        <rect fill="#ff0000" height="19px" opacity="1" rx="10" ry="10" stroke="none" width="142px" x="917" y="515.5999999999999"/>
        <rect fill="#00ff00" height="19px" opacity="1" rx="10" ry="10" stroke="none" width="162px" x="1603" y="515.5999999999999"/>
        <rect fill="#ffff00" height="19px" opacity="1" rx="10" ry="10" stroke="none" width="59px" x="1851" y="515.5999999999999"/>
        <rect fill="#0000ff" height="19px" opacity="1" rx="10" ry="10" stroke="none" width="507px" x="2204" y="515.5999999999999"/>
        <line fill="none" stroke="black" x1="5" x2="2784" y1="547.4" y2="547.4"/>
        <rect fill="#ff00ff" height="19px" opacity="1" rx="10" ry="10" stroke="none" width="67px" x="90" y="537.8"/>
        <rect fill="#00ffff" height="19px" opacity="1" rx="10" ry="10" stroke="none" width="182px" x="166" y="537.8"/>
        <rect fill="#ff0000" height="19px" opacity="1" rx="10" ry="10" stroke="none" width="144px" x="911" y="537.8"/>
        <rect fill="#800080" height="19px" opacity="1" rx="10" ry="10" stroke="none" width="109px" x="1100" y="537.8"/>
        <rect fill="#00ff00" height="19px" opacity="1" rx="10" ry="10" stroke="none" width="166px" x="1592" y="537.8"/>
        <rect fill="#ffff00" height="19px" opacity="1" rx="10" ry="10" stroke="none" width="60px" x="1848" y="537.8"/>
        <rect fill="#0000ff" height="19px" opacity="1" rx="10" ry="10" stroke="none" width="500px" x="2209" y="537.8"/>
        <line fill="none" stroke="black" x1="5" x2="3019" y1="569.6" y2="569.6"/>
        <rect fill="#ff00ff" height="19px" opacity="1" rx="10" ry="10" stroke="none" width="67px" x="98" y="560.0"/>
        <rect fill="#00ffff" height="19px" opacity="1" rx="10" ry="10" stroke="none" width="173px" x="176" y="560.0"/>
        <rect fill="#000080" height="19px" opacity="1" rx="10" ry="10" stroke="none" width="187px" x="713" y="560.0"/>
        <rect fill="#ff0000" height="19px" opacity="1" rx="10" ry="10" stroke="none" width="143px" x="951" y="560.0"/>
        <rect fill="#800080" height="19px" opacity="1" rx="10" ry="10" stroke="none" width="133px" x="1117" y="560.0"/>
        <rect fill="#00ff00" height="19px" opacity="1" rx="10" ry="10" stroke="none" width="187px" x="1624" y="560.0"/>
        <rect fill="#0000ff" height="19px" opacity="1" rx="10" ry="10" stroke="none" width="498px" x="2434" y="560.0"/>
        <text fill="black" style="font-size:22px; font-family:Courier New" x="3345" y="22.2">KP325401_1</text>
        <text fill="black" style="font-size:22px; font-family:Courier New" x="3345" y="44.4">AF009606_1</text>
        <text fill="black" style="font-size:22px; font-family:Courier New" x="3345" y="66.6">M62321_1</text>
        <text fill="black" style="font-size:22px; font-family:Courier New" x="3345" y="88.8">D90208_1</text>
        <text fill="black" style="font-size:22px; font-family:Courier New" x="3345" y="111.0">GU814265_1</text>
        <text fill="black" style="font-size:22px; font-family:Courier New" x="3345" y="133.2">Y13184_1</text>
        <text fill="black" style="font-size:22px; font-family:Courier New" x="3345" y="155.39999999999998">Y12083_1</text>
        <text fill="black" style="font-size:22px; font-family:Courier New" x="3345" y="177.6">D63822_1</text>
        <text fill="black" style="font-size:22px; font-family:Courier New" x="3345" y="199.79999999999998">D17763_1</text>
        <text fill="black" style="font-size:22px; font-family:Courier New" x="3345" y="221.99999999999997">D63821_1</text>
        <text fill="black" style="font-size:22px; font-family:Courier New" x="3345" y="244.2">D00944_1</text>
        <text fill="black" style="font-size:22px; font-family:Courier New" x="3345" y="266.4">D10988_1</text>
        <text fill="black" style="font-size:22px; font-family:Courier New" x="3345" y="288.59999999999997">EF108306_2</text>
        <text fill="black" style="font-size:22px; font-family:Courier New" x="3345" y="310.79999999999995">KC796074_1</text>
        <text fill="black" style="font-size:22px; font-family:Courier New" x="3345" y="333.0">KC796078_1</text>
        <text fill="black" style="font-size:22px; font-family:Courier New" x="3345" y="355.2">U22304_1</text>
        <text fill="black" style="font-size:22px; font-family:Courier New" x="3345" y="377.4">KC551800_1</text>
        <text fill="black" style="font-size:22px; font-family:Courier New" x="3345" y="399.59999999999997">KC796077_1</text>
        <text fill="black" style="font-size:22px; font-family:Courier New" x="3345" y="421.79999999999995">KC815310_1</text>
        <text fill="black" style="font-size:22px; font-family:Courier New" x="3345" y="444.0">KC411784_1</text>
        <text fill="black" style="font-size:22px; font-family:Courier New" x="3345" y="466.2">KJ950938_1</text>
        <text fill="black" style="font-size:22px; font-family:Courier New" x="3345" y="488.4">KX905133_1</text>
        <text fill="black" style="font-size:22px; font-family:Courier New" x="3345" y="510.6">KJ950939_1</text>
        <text fill="black" style="font-size:22px; font-family:Courier New" x="3345" y="532.8">KC411806_1</text>
        <text fill="black" style="font-size:22px; font-family:Courier New" x="3345" y="555.0">KP641127_2</text>
        <text fill="black" style="font-size:22px; font-family:Courier New" x="3345" y="577.2">KC411777_1</text>
        <rect fill="#0000ff" height="19px" stroke="none" width="19px" x="5" y="604.2"/>
        <text fill="black" style="font-size:18px; font-family:Courier New" x="29.2" y="621.4000000000001">26</text>
        <text fill="black" style="font-size:18px; font-family:Courier New; font-weight:bold" x="72.37" y="621.4000000000001">RdRP_3</text>
        <text fill="black" style="font-size:18px; font-family:Courier New" x="259.44" y="621.4000000000001">Viral RNA dependent RNA polymerase</text>
        <rect fill="#00ff00" height="19px" stroke="none" width="19px" x="5" y="626.4000000000001"/>
        <text fill="black" style="font-size:18px; font-family:Courier New" x="29.2" y="643.6000000000001">26</text>
        <text fill="black" style="font-size:18px; font-family:Courier New; font-weight:bold" x="72.37" y="643.6000000000001">HCV_NS4b</text>
        <text fill="black" style="font-size:18px; font-family:Courier New" x="259.44" y="643.6000000000001">Hepatitis C virus non-structural protein NS4b</text>
        <rect fill="#ff0000" height="19px" stroke="none" width="19px" x="5" y="648.6"/>
        <text fill="black" style="font-size:18px; font-family:Courier New" x="29.2" y="665.8000000000001">26</text>
        <text fill="black" style="font-size:18px; font-family:Courier New; font-weight:bold" x="72.37" y="665.8000000000001">Peptidase_S29</text>
        <text fill="black" style="font-size:18px; font-family:Courier New" x="259.44" y="665.8000000000001">Hepatitis C virus NS3 protease</text>
        <rect fill="#00ffff" height="19px" stroke="none" width="19px" x="5" y="670.8000000000001"/>
        <text fill="black" style="font-size:18px; font-family:Courier New" x="29.2" y="688.0000000000001">26</text>
        <text fill="black" style="font-size:18px; font-family:Courier New; font-weight:bold" x="72.37" y="688.0000000000001">HCV_env</text>
        <text fill="black" style="font-size:18px; font-family:Courier New" x="259.44" y="688.0000000000001">Hepatitis C virus envelope glycoprotein E1</text>
        <rect fill="#ff00ff" height="19px" stroke="none" width="19px" x="5" y="693.0"/>
        <text fill="black" style="font-size:18px; font-family:Courier New" x="29.2" y="710.2">25</text>
        <text fill="black" style="font-size:18px; font-family:Courier New; font-weight:bold" x="72.37" y="710.2">HCV_core</text>
        <text fill="black" style="font-size:18px; font-family:Courier New" x="259.44" y="710.2">Hepatitis C virus core protein</text>
        <rect fill="#ffff00" height="19px" stroke="none" width="19px" x="5" y="715.2"/>
        <text fill="black" style="font-size:18px; font-family:Courier New" x="29.2" y="732.4000000000001">23</text>
        <text fill="black" style="font-size:18px; font-family:Courier New; font-weight:bold" x="72.37" y="732.4000000000001">HCV_NS5a_1a</text>
        <text fill="black" style="font-size:18px; font-family:Courier New" x="259.44" y="732.4000000000001">Hepatitis C virus non-structural 5a zinc finger domain</text>
        <rect fill="#000080" height="19px" stroke="none" width="19px" x="5" y="737.4000000000001"/>
        <text fill="black" style="font-size:18px; font-family:Courier New" x="29.2" y="754.6000000000001">18</text>
        <text fill="black" style="font-size:18px; font-family:Courier New; font-weight:bold" x="72.37" y="754.6000000000001">HCV_NS2</text>
        <text fill="black" style="font-size:18px; font-family:Courier New" x="259.44" y="754.6000000000001">Hepatitis C virus non-structural protein NS2</text>
        <rect fill="#008000" height="19px" stroke="none" width="19px" x="5" y="759.6"/>
        <text fill="black" style="font-size:18px; font-family:Courier New" x="29.2" y="776.8000000000001">17</text>
        <text fill="black" style="font-size:18px; font-family:Courier New; font-weight:bold" x="72.37" y="776.8000000000001">HCV_NS5a_1b</text>
        <text fill="black" style="font-size:18px; font-family:Courier New" x="259.44" y="776.8000000000001">Hepatitis C virus non-structural 5a domain 1b</text>
        <rect fill="#800000" height="19px" stroke="none" width="19px" x="5" y="781.8000000000001"/>
        <text fill="black" style="font-size:18px; font-family:Courier New" x="29.2" y="799.0000000000001">15</text>
        <text fill="black" style="font-size:18px; font-family:Courier New; font-weight:bold" x="72.37" y="799.0000000000001">HCV_NS1</text>
        <text fill="black" style="font-size:18px; font-family:Courier New" x="259.44" y="799.0000000000001">Hepatitis C virus non-structural protein E2/NS1</text>
        <rect fill="#008080" height="19px" stroke="none" width="19px" x="5" y="804.0"/>
        <text fill="black" style="font-size:18px; font-family:Courier New" x="29.2" y="821.2">15</text>
        <text fill="black" style="font-size:18px; font-family:Courier New; font-weight:bold" x="72.37" y="821.2">HCV_NS4a</text>
        <text fill="black" style="font-size:18px; font-family:Courier New" x="259.44" y="821.2">Hepatitis C virus non-structural protein NS4a</text>
        <rect fill="#800080" height="19px" stroke="none" width="19px" x="5" y="826.2"/>
        <text fill="black" style="font-size:18px; font-family:Courier New" x="29.2" y="843.4000000000001">14</text>
        <text fill="black" style="font-size:18px; font-family:Courier New; font-weight:bold" x="72.37" y="843.4000000000001">Flavi_DEAD</text>
        <text fill="black" style="font-size:18px; font-family:Courier New" x="259.44" y="843.4000000000001">Flavivirus DEAD domain</text>
        <rect fill="#808000" height="19px" stroke="none" width="19px" x="5" y="848.4000000000001"/>
        <text fill="black" style="font-size:18px; font-family:Courier New" x="29.2" y="865.6000000000001">13</text>
        <text fill="black" style="font-size:18px; font-family:Courier New; font-weight:bold" x="72.37" y="865.6000000000001">HCV_capsid</text>
        <text fill="black" style="font-size:18px; font-family:Courier New" x="259.44" y="865.6000000000001">Hepatitis C virus capsid protein</text>
        <rect fill="#000040" height="19px" stroke="none" width="19px" x="5" y="870.6"/>
        <text fill="black" style="font-size:18px; font-family:Courier New" x="29.2" y="887.8000000000001">13</text>
        <text fill="black" style="font-size:18px; font-family:Courier New; font-weight:bold" x="72.37" y="887.8000000000001">HCV_NS5a_C</text>
        <text fill="black" style="font-size:18px; font-family:Courier New" x="259.44" y="887.8000000000001">HCV NS5a protein C-terminal region</text>
        <rect fill="#004000" height="19px" stroke="none" width="19px" x="5" y="892.8"/>
        <text fill="black" style="font-size:18px; font-family:Courier New" x="29.2" y="910.0">13</text>
        <text fill="black" style="font-size:18px; font-family:Courier New; font-weight:bold" x="72.37" y="910.0">HCV_NS5a</text>
        <text fill="black" style="font-size:18px; font-family:Courier New" x="259.44" y="910.0">Hepatitis C virus non-structural 5a protein membrane anchor</text>
    </g>
</svg>
