<?xml version="1.0" encoding="utf-8" ?>
<svg xmlns="http://www.w3.org/2000/svg" xmlns:ev="http://www.w3.org/2001/xml-events" xmlns:xlink="http://www.w3.org/1999/xlink" baseProfile="full" height="759.6px" version="1.1" width="3642.9px">
    <defs/>
    <g transform="translate(5,0)">
        <line fill="none" stroke="black" x1="5" x2="2959" y1="14.6" y2="14.6"/>
        <rect fill="#000080" height="19px" opacity="1" rx="10" ry="10" stroke="none" width="399px" x="125" y="5.0"/>
        <rect fill="#00ffff" height="19px" opacity="1" rx="10" ry="10" stroke="none" width="196px" x="750" y="5.0"/>
        <rect fill="#ff0000" height="19px" opacity="1" rx="10" ry="10" stroke="none" width="147px" x="997" y="5.0"/>
        <rect fill="#008000" height="19px" opacity="1" rx="10" ry="10" stroke="none" width="65px" x="1596" y="5.0"/>
        <rect fill="#00ff00" height="19px" opacity="1" rx="10" ry="10" stroke="none" width="187px" x="1705" y="5.0"/>
        <rect fill="#800000" height="19px" opacity="1" rx="10" ry="10" stroke="none" width="23px" x="1942" y="5.0"/>
        <rect fill="#ff00ff" height="19px" opacity="1" rx="10" ry="10" stroke="none" width="49px" x="1972" y="5.0"/>
        <rect fill="#ffff00" height="19px" opacity="1" rx="10" ry="10" stroke="none" width="98px" x="2038" y="5.0"/>
        <rect fill="#0000ff" height="19px" opacity="1" rx="10" ry="10" stroke="none" width="489px" x="2401" y="5.0"/>
        <line fill="none" stroke="black" x1="5" x2="2972" y1="36.8" y2="36.8"/>
        <rect fill="#000080" height="19px" opacity="1" rx="10" ry="10" stroke="none" width="399px" x="125" y="27.2"/>
        <rect fill="#00ffff" height="19px" opacity="1" rx="10" ry="10" stroke="none" width="197px" x="748" y="27.2"/>
        <rect fill="#ff0000" height="19px" opacity="1" rx="10" ry="10" stroke="none" width="146px" x="997" y="27.2"/>
        <rect fill="#008000" height="19px" opacity="1" rx="10" ry="10" stroke="none" width="68px" x="1595" y="27.2"/>
        <rect fill="#00ff00" height="19px" opacity="1" rx="10" ry="10" stroke="none" width="189px" x="1708" y="27.2"/>
        <rect fill="#800000" height="19px" opacity="1" rx="10" ry="10" stroke="none" width="23px" x="1947" y="27.2"/>
        <rect fill="#ff00ff" height="19px" opacity="1" rx="10" ry="10" stroke="none" width="52px" x="1977" y="27.2"/>
        <rect fill="#ffff00" height="19px" opacity="1" rx="10" ry="10" stroke="none" width="98px" x="2042" y="27.2"/>
        <rect fill="#0000ff" height="19px" opacity="1" rx="10" ry="10" stroke="none" width="489px" x="2414" y="27.2"/>
        <line fill="none" stroke="black" x1="5" x2="2878" y1="59.0" y2="59.0"/>
        <rect fill="#000080" height="19px" opacity="1" rx="10" ry="10" stroke="none" width="426px" x="156" y="49.4"/>
        <rect fill="#00ffff" height="19px" opacity="1" rx="10" ry="10" stroke="none" width="198px" x="710" y="49.4"/>
        <rect fill="#ff0000" height="19px" opacity="1" rx="10" ry="10" stroke="none" width="147px" x="960" y="49.4"/>
        <rect fill="#008000" height="19px" opacity="1" rx="10" ry="10" stroke="none" width="68px" x="1559" y="49.4"/>
        <rect fill="#00ff00" height="19px" opacity="1" rx="10" ry="10" stroke="none" width="195px" x="1658" y="49.4"/>
        <rect fill="#800000" height="19px" opacity="1" rx="10" ry="10" stroke="none" width="23px" x="1902" y="49.4"/>
        <rect fill="#ff00ff" height="19px" opacity="1" rx="10" ry="10" stroke="none" width="60px" x="1932" y="49.4"/>
        <rect fill="#ffff00" height="19px" opacity="1" rx="10" ry="10" stroke="none" width="98px" x="1996" y="49.4"/>
        <rect fill="#0000ff" height="19px" opacity="1" rx="10" ry="10" stroke="none" width="493px" x="2318" y="49.4"/>
        <line fill="none" stroke="black" x1="5" x2="2847" y1="81.19999999999999" y2="81.19999999999999"/>
        <rect fill="#000080" height="19px" opacity="1" rx="10" ry="10" stroke="none" width="426px" x="125" y="71.6"/>
        <rect fill="#00ffff" height="19px" opacity="1" rx="10" ry="10" stroke="none" width="198px" x="679" y="71.6"/>
        <rect fill="#ff0000" height="19px" opacity="1" rx="10" ry="10" stroke="none" width="147px" x="929" y="71.6"/>
        <rect fill="#008000" height="19px" opacity="1" rx="10" ry="10" stroke="none" width="68px" x="1528" y="71.6"/>
        <rect fill="#00ff00" height="19px" opacity="1" rx="10" ry="10" stroke="none" width="195px" x="1627" y="71.6"/>
        <rect fill="#800000" height="19px" opacity="1" rx="10" ry="10" stroke="none" width="23px" x="1871" y="71.6"/>
        <rect fill="#ff00ff" height="19px" opacity="1" rx="10" ry="10" stroke="none" width="60px" x="1901" y="71.6"/>
        <rect fill="#ffff00" height="19px" opacity="1" rx="10" ry="10" stroke="none" width="98px" x="1965" y="71.6"/>
        <rect fill="#0000ff" height="19px" opacity="1" rx="10" ry="10" stroke="none" width="493px" x="2287" y="71.6"/>
        <line fill="none" stroke="black" x1="5" x2="2847" y1="103.39999999999999" y2="103.39999999999999"/>
        <rect fill="#000080" height="19px" opacity="1" rx="10" ry="10" stroke="none" width="426px" x="125" y="93.8"/>
        <rect fill="#00ffff" height="19px" opacity="1" rx="10" ry="10" stroke="none" width="198px" x="679" y="93.8"/>
        <rect fill="#ff0000" height="19px" opacity="1" rx="10" ry="10" stroke="none" width="147px" x="929" y="93.8"/>
        <rect fill="#008000" height="19px" opacity="1" rx="10" ry="10" stroke="none" width="68px" x="1528" y="93.8"/>
        <rect fill="#00ff00" height="19px" opacity="1" rx="10" ry="10" stroke="none" width="195px" x="1627" y="93.8"/>
        <rect fill="#800000" height="19px" opacity="1" rx="10" ry="10" stroke="none" width="23px" x="1871" y="93.8"/>
        <rect fill="#ff00ff" height="19px" opacity="1" rx="10" ry="10" stroke="none" width="60px" x="1901" y="93.8"/>
        <rect fill="#ffff00" height="19px" opacity="1" rx="10" ry="10" stroke="none" width="98px" x="1965" y="93.8"/>
        <rect fill="#0000ff" height="19px" opacity="1" rx="10" ry="10" stroke="none" width="493px" x="2287" y="93.8"/>
        <line fill="none" stroke="black" x1="5" x2="2915" y1="125.6" y2="125.6"/>
        <rect fill="#800080" height="19px" opacity="1" rx="10" ry="10" stroke="none" width="26px" x="6" y="116.0"/>
        <rect fill="#000080" height="19px" opacity="1" rx="10" ry="10" stroke="none" width="426px" x="193" y="116.0"/>
        <rect fill="#00ffff" height="19px" opacity="1" rx="10" ry="10" stroke="none" width="198px" x="747" y="116.0"/>
        <rect fill="#ff0000" height="19px" opacity="1" rx="10" ry="10" stroke="none" width="147px" x="997" y="116.0"/>
        <rect fill="#008000" height="19px" opacity="1" rx="10" ry="10" stroke="none" width="68px" x="1596" y="116.0"/>
        <rect fill="#00ff00" height="19px" opacity="1" rx="10" ry="10" stroke="none" width="195px" x="1695" y="116.0"/>
        <rect fill="#800000" height="19px" opacity="1" rx="10" ry="10" stroke="none" width="23px" x="1939" y="116.0"/>
        <rect fill="#ff00ff" height="19px" opacity="1" rx="10" ry="10" stroke="none" width="60px" x="1969" y="116.0"/>
        <rect fill="#ffff00" height="19px" opacity="1" rx="10" ry="10" stroke="none" width="98px" x="2033" y="116.0"/>
        <rect fill="#0000ff" height="19px" opacity="1" rx="10" ry="10" stroke="none" width="493px" x="2355" y="116.0"/>
        <line fill="none" stroke="black" x1="5" x2="2847" y1="147.79999999999998" y2="147.79999999999998"/>
        <rect fill="#000080" height="19px" opacity="1" rx="10" ry="10" stroke="none" width="426px" x="125" y="138.2"/>
        <rect fill="#00ffff" height="19px" opacity="1" rx="10" ry="10" stroke="none" width="198px" x="679" y="138.2"/>
        <rect fill="#ff0000" height="19px" opacity="1" rx="10" ry="10" stroke="none" width="147px" x="929" y="138.2"/>
        <rect fill="#008000" height="19px" opacity="1" rx="10" ry="10" stroke="none" width="68px" x="1528" y="138.2"/>
        <rect fill="#00ff00" height="19px" opacity="1" rx="10" ry="10" stroke="none" width="195px" x="1627" y="138.2"/>
        <rect fill="#800000" height="19px" opacity="1" rx="10" ry="10" stroke="none" width="23px" x="1871" y="138.2"/>
        <rect fill="#ff00ff" height="19px" opacity="1" rx="10" ry="10" stroke="none" width="60px" x="1901" y="138.2"/>
        <rect fill="#ffff00" height="19px" opacity="1" rx="10" ry="10" stroke="none" width="98px" x="1965" y="138.2"/>
        <rect fill="#0000ff" height="19px" opacity="1" rx="10" ry="10" stroke="none" width="493px" x="2287" y="138.2"/>
        <line fill="none" stroke="black" x1="5" x2="2847" y1="170.0" y2="170.0"/>
        <rect fill="#000080" height="19px" opacity="1" rx="10" ry="10" stroke="none" width="426px" x="125" y="160.4"/>
        <rect fill="#00ffff" height="19px" opacity="1" rx="10" ry="10" stroke="none" width="198px" x="679" y="160.4"/>
        <rect fill="#ff0000" height="19px" opacity="1" rx="10" ry="10" stroke="none" width="147px" x="929" y="160.4"/>
        <rect fill="#008000" height="19px" opacity="1" rx="10" ry="10" stroke="none" width="68px" x="1528" y="160.4"/>
        <rect fill="#00ff00" height="19px" opacity="1" rx="10" ry="10" stroke="none" width="194px" x="1628" y="160.4"/>
        <rect fill="#800000" height="19px" opacity="1" rx="10" ry="10" stroke="none" width="23px" x="1871" y="160.4"/>
        <rect fill="#ff00ff" height="19px" opacity="1" rx="10" ry="10" stroke="none" width="60px" x="1901" y="160.4"/>
        <rect fill="#ffff00" height="19px" opacity="1" rx="10" ry="10" stroke="none" width="98px" x="1965" y="160.4"/>
        <rect fill="#0000ff" height="19px" opacity="1" rx="10" ry="10" stroke="none" width="493px" x="2287" y="160.4"/>
        <line fill="none" stroke="black" x1="5" x2="2847" y1="192.2" y2="192.2"/>
        <rect fill="#000080" height="19px" opacity="1" rx="10" ry="10" stroke="none" width="426px" x="125" y="182.6"/>
        <rect fill="#00ffff" height="19px" opacity="1" rx="10" ry="10" stroke="none" width="198px" x="679" y="182.6"/>
        <rect fill="#ff0000" height="19px" opacity="1" rx="10" ry="10" stroke="none" width="147px" x="929" y="182.6"/>
        <rect fill="#008000" height="19px" opacity="1" rx="10" ry="10" stroke="none" width="68px" x="1528" y="182.6"/>
        <rect fill="#00ff00" height="19px" opacity="1" rx="10" ry="10" stroke="none" width="194px" x="1628" y="182.6"/>
        <rect fill="#800000" height="19px" opacity="1" rx="10" ry="10" stroke="none" width="23px" x="1871" y="182.6"/>
        <rect fill="#ff00ff" height="19px" opacity="1" rx="10" ry="10" stroke="none" width="60px" x="1901" y="182.6"/>
        <rect fill="#ffff00" height="19px" opacity="1" rx="10" ry="10" stroke="none" width="98px" x="1965" y="182.6"/>
        <rect fill="#0000ff" height="19px" opacity="1" rx="10" ry="10" stroke="none" width="493px" x="2287" y="182.6"/>
        <line fill="none" stroke="black" x1="5" x2="2847" y1="214.39999999999998" y2="214.39999999999998"/>
        <rect fill="#000080" height="19px" opacity="1" rx="10" ry="10" stroke="none" width="426px" x="125" y="204.79999999999998"/>
        <rect fill="#00ffff" height="19px" opacity="1" rx="10" ry="10" stroke="none" width="198px" x="679" y="204.79999999999998"/>
        <rect fill="#ff0000" height="19px" opacity="1" rx="10" ry="10" stroke="none" width="147px" x="929" y="204.79999999999998"/>
        <rect fill="#008000" height="19px" opacity="1" rx="10" ry="10" stroke="none" width="68px" x="1528" y="204.79999999999998"/>
        <rect fill="#00ff00" height="19px" opacity="1" rx="10" ry="10" stroke="none" width="194px" x="1628" y="204.79999999999998"/>
        <rect fill="#800000" height="19px" opacity="1" rx="10" ry="10" stroke="none" width="23px" x="1871" y="204.79999999999998"/>
        <rect fill="#ff00ff" height="19px" opacity="1" rx="10" ry="10" stroke="none" width="60px" x="1901" y="204.79999999999998"/>
        <rect fill="#ffff00" height="19px" opacity="1" rx="10" ry="10" stroke="none" width="98px" x="1965" y="204.79999999999998"/>
        <rect fill="#0000ff" height="19px" opacity="1" rx="10" ry="10" stroke="none" width="493px" x="2287" y="204.79999999999998"/>
        <line fill="none" stroke="black" x1="5" x2="2947" y1="236.6" y2="236.6"/>
        <rect fill="#800080" height="19px" opacity="1" rx="10" ry="10" stroke="none" width="26px" x="47" y="227.0"/>
        <rect fill="#000080" height="19px" opacity="1" rx="10" ry="10" stroke="none" width="425px" x="234" y="227.0"/>
        <rect fill="#00ffff" height="19px" opacity="1" rx="10" ry="10" stroke="none" width="195px" x="784" y="227.0"/>
        <rect fill="#ff0000" height="19px" opacity="1" rx="10" ry="10" stroke="none" width="147px" x="1031" y="227.0"/>
        <rect fill="#008000" height="19px" opacity="1" rx="10" ry="10" stroke="none" width="68px" x="1630" y="227.0"/>
        <rect fill="#00ff00" height="19px" opacity="1" rx="10" ry="10" stroke="none" width="183px" x="1737" y="227.0"/>
        <rect fill="#800000" height="19px" opacity="1" rx="10" ry="10" stroke="none" width="23px" x="1969" y="227.0"/>
        <rect fill="#ff00ff" height="19px" opacity="1" rx="10" ry="10" stroke="none" width="60px" x="1999" y="227.0"/>
        <rect fill="#ffff00" height="19px" opacity="1" rx="10" ry="10" stroke="none" width="98px" x="2063" y="227.0"/>
        <rect fill="#0000ff" height="19px" opacity="1" rx="10" ry="10" stroke="none" width="492px" x="2386" y="227.0"/>
        <line fill="none" stroke="black" x1="5" x2="3111" y1="258.8" y2="258.8"/>
        <rect fill="#000080" height="19px" opacity="1" rx="10" ry="10" stroke="none" width="383px" x="171" y="249.2"/>
        <rect fill="#00ffff" height="19px" opacity="1" rx="10" ry="10" stroke="none" width="193px" x="857" y="249.2"/>
        <rect fill="#ff0000" height="19px" opacity="1" rx="10" ry="10" stroke="none" width="148px" x="1101" y="249.2"/>
        <rect fill="#00ff00" height="19px" opacity="1" rx="10" ry="10" stroke="none" width="167px" x="1849" y="249.2"/>
        <rect fill="#ff00ff" height="19px" opacity="1" rx="10" ry="10" stroke="none" width="39px" x="2096" y="249.2"/>
        <rect fill="#ffff00" height="19px" opacity="1" rx="10" ry="10" stroke="none" width="92px" x="2160" y="249.2"/>
        <rect fill="#0000ff" height="19px" opacity="1" rx="10" ry="10" stroke="none" width="497px" x="2538" y="249.2"/>
        <line fill="none" stroke="black" x1="5" x2="3106" y1="281.0" y2="281.0"/>
        <rect fill="#000080" height="19px" opacity="1" rx="10" ry="10" stroke="none" width="383px" x="166" y="271.4"/>
        <rect fill="#00ffff" height="19px" opacity="1" rx="10" ry="10" stroke="none" width="193px" x="852" y="271.4"/>
        <rect fill="#ff0000" height="19px" opacity="1" rx="10" ry="10" stroke="none" width="148px" x="1096" y="271.4"/>
        <rect fill="#00ff00" height="19px" opacity="1" rx="10" ry="10" stroke="none" width="167px" x="1844" y="271.4"/>
        <rect fill="#ff00ff" height="19px" opacity="1" rx="10" ry="10" stroke="none" width="39px" x="2091" y="271.4"/>
        <rect fill="#ffff00" height="19px" opacity="1" rx="10" ry="10" stroke="none" width="92px" x="2155" y="271.4"/>
        <rect fill="#0000ff" height="19px" opacity="1" rx="10" ry="10" stroke="none" width="497px" x="2533" y="271.4"/>
        <line fill="none" stroke="black" x1="5" x2="3041" y1="303.2" y2="303.2"/>
        <rect fill="#000080" height="19px" opacity="1" rx="10" ry="10" stroke="none" width="403px" x="129" y="293.59999999999997"/>
        <rect fill="#00ffff" height="19px" opacity="1" rx="10" ry="10" stroke="none" width="192px" x="744" y="293.59999999999997"/>
        <rect fill="#ff0000" height="19px" opacity="1" rx="10" ry="10" stroke="none" width="146px" x="988" y="293.59999999999997"/>
        <rect fill="#008080" height="19px" opacity="1" rx="10" ry="10" stroke="none" width="127px" x="1162" y="293.59999999999997"/>
        <rect fill="#008000" height="19px" opacity="1" rx="10" ry="10" stroke="none" width="37px" x="1591" y="293.59999999999997"/>
        <rect fill="#00ff00" height="19px" opacity="1" rx="10" ry="10" stroke="none" width="166px" x="1776" y="293.59999999999997"/>
        <rect fill="#ff00ff" height="19px" opacity="1" rx="10" ry="10" stroke="none" width="50px" x="2024" y="293.59999999999997"/>
        <rect fill="#ffff00" height="19px" opacity="1" rx="10" ry="10" stroke="none" width="93px" x="2089" y="293.59999999999997"/>
        <rect fill="#0000ff" height="19px" opacity="1" rx="10" ry="10" stroke="none" width="499px" x="2465" y="293.59999999999997"/>
        <line fill="none" stroke="black" x1="5" x2="2977" y1="325.40000000000003" y2="325.40000000000003"/>
        <rect fill="#000080" height="19px" opacity="1" rx="10" ry="10" stroke="none" width="232px" x="129" y="315.8"/>
        <rect fill="#000080" height="19px" opacity="1" rx="10" ry="10" stroke="none" width="111px" x="416" y="315.8"/>
        <rect fill="#00ffff" height="19px" opacity="1" rx="10" ry="10" stroke="none" width="195px" x="777" y="315.8"/>
        <rect fill="#ff0000" height="19px" opacity="1" rx="10" ry="10" stroke="none" width="149px" x="1024" y="315.8"/>
        <rect fill="#008080" height="19px" opacity="1" rx="10" ry="10" stroke="none" width="127px" x="1199" y="315.8"/>
        <rect fill="#008000" height="19px" opacity="1" rx="10" ry="10" stroke="none" width="35px" x="1628" y="315.8"/>
        <rect fill="#00ff00" height="19px" opacity="1" rx="10" ry="10" stroke="none" width="168px" x="1751" y="315.8"/>
        <rect fill="#ff00ff" height="19px" opacity="1" rx="10" ry="10" stroke="none" width="58px" x="1999" y="315.8"/>
        <rect fill="#ffff00" height="19px" opacity="1" rx="10" ry="10" stroke="none" width="95px" x="2068" y="315.8"/>
        <rect fill="#0000ff" height="19px" opacity="1" rx="10" ry="10" stroke="none" width="495px" x="2407" y="315.8"/>
        <line fill="none" stroke="black" x1="5" x2="3194" y1="347.6" y2="347.6"/>
        <rect fill="#000080" height="19px" opacity="1" rx="10" ry="10" stroke="none" width="350px" x="133" y="338.0"/>
        <rect fill="#00ffff" height="19px" opacity="1" rx="10" ry="10" stroke="none" width="195px" x="732" y="338.0"/>
        <rect fill="#ff0000" height="19px" opacity="1" rx="10" ry="10" stroke="none" width="149px" x="978" y="338.0"/>
        <rect fill="#008000" height="19px" opacity="1" rx="10" ry="10" stroke="none" width="41px" x="1582" y="338.0"/>
        <rect fill="#00ff00" height="19px" opacity="1" rx="10" ry="10" stroke="none" width="162px" x="1729" y="338.0"/>
        <rect fill="#ff00ff" height="19px" opacity="1" rx="10" ry="10" stroke="none" width="37px" x="1976" y="338.0"/>
        <rect fill="#ffff00" height="19px" opacity="1" rx="10" ry="10" stroke="none" width="94px" x="2044" y="338.0"/>
        <rect fill="#0000ff" height="19px" opacity="1" rx="10" ry="10" stroke="none" width="497px" x="2598" y="338.0"/>
        <line fill="none" stroke="black" x1="5" x2="3349" y1="369.8" y2="369.8"/>
        <rect fill="#00ffff" height="19px" opacity="1" rx="10" ry="10" stroke="none" width="192px" x="806" y="360.2"/>
        <rect fill="#ff0000" height="19px" opacity="1" rx="10" ry="10" stroke="none" width="148px" x="1050" y="360.2"/>
        <rect fill="#008000" height="19px" opacity="1" rx="10" ry="10" stroke="none" width="48px" x="1653" y="360.2"/>
        <rect fill="#00ff00" height="19px" opacity="1" rx="10" ry="10" stroke="none" width="168px" x="1815" y="360.2"/>
        <rect fill="#ff00ff" height="19px" opacity="1" rx="10" ry="10" stroke="none" width="50px" x="2069" y="360.2"/>
        <rect fill="#ffff00" height="19px" opacity="1" rx="10" ry="10" stroke="none" width="91px" x="2137" y="360.2"/>
        <rect fill="#0000ff" height="19px" opacity="1" rx="10" ry="10" stroke="none" width="493px" x="2756" y="360.2"/>
        <line fill="none" stroke="black" x1="5" x2="3330" y1="392.0" y2="392.0"/>
        <rect fill="#00ffff" height="19px" opacity="1" rx="10" ry="10" stroke="none" width="198px" x="989" y="382.4"/>
        <rect fill="#ff0000" height="19px" opacity="1" rx="10" ry="10" stroke="none" width="146px" x="1238" y="382.4"/>
        <rect fill="#008080" height="19px" opacity="1" rx="10" ry="10" stroke="none" width="127px" x="1414" y="382.4"/>
        <rect fill="#00ff00" height="19px" opacity="1" rx="10" ry="10" stroke="none" width="159px" x="1959" y="382.4"/>
        <rect fill="#ff00ff" height="19px" opacity="1" rx="10" ry="10" stroke="none" width="62px" x="2201" y="382.4"/>
        <rect fill="#0000ff" height="19px" opacity="1" rx="10" ry="10" stroke="none" width="493px" x="2759" y="382.4"/>
        <line fill="none" stroke="black" x1="5" x2="3489" y1="414.2" y2="414.2"/>
        <rect fill="#00ffff" height="19px" opacity="1" rx="10" ry="10" stroke="none" width="197px" x="1060" y="404.59999999999997"/>
        <rect fill="#ff0000" height="19px" opacity="1" rx="10" ry="10" stroke="none" width="145px" x="1309" y="404.59999999999997"/>
        <rect fill="#008000" height="19px" opacity="1" rx="10" ry="10" stroke="none" width="40px" x="1910" y="404.59999999999997"/>
        <rect fill="#00ff00" height="19px" opacity="1" rx="10" ry="10" stroke="none" width="163px" x="2045" y="404.59999999999997"/>
        <rect fill="#0000ff" height="19px" opacity="1" rx="10" ry="10" stroke="none" width="493px" x="2925" y="404.59999999999997"/>
        <line fill="none" stroke="black" x1="5" x2="3474" y1="436.40000000000003" y2="436.40000000000003"/>
        <rect fill="#00ffff" height="19px" opacity="1" rx="10" ry="10" stroke="none" width="197px" x="1107" y="426.8"/>
        <rect fill="#ff0000" height="19px" opacity="1" rx="10" ry="10" stroke="none" width="148px" x="1355" y="426.8"/>
        <rect fill="#008080" height="19px" opacity="1" rx="10" ry="10" stroke="none" width="113px" x="1545" y="426.8"/>
        <rect fill="#00ff00" height="19px" opacity="1" rx="10" ry="10" stroke="none" width="155px" x="2084" y="426.8"/>
        <rect fill="#0000ff" height="19px" opacity="1" rx="10" ry="10" stroke="none" width="492px" x="2908" y="426.8"/>
        <line fill="none" stroke="black" x1="5" x2="3062" y1="458.6" y2="458.6"/>
        <rect fill="#00ffff" height="19px" opacity="1" rx="10" ry="10" stroke="none" width="194px" x="891" y="449.0"/>
        <rect fill="#ff0000" height="19px" opacity="1" rx="10" ry="10" stroke="none" width="145px" x="1136" y="449.0"/>
        <rect fill="#808000" height="19px" opacity="1" rx="10" ry="10" stroke="none" width="142px" x="1291" y="449.0"/>
        <rect fill="#00ff00" height="19px" opacity="1" rx="10" ry="10" stroke="none" width="183px" x="1810" y="449.0"/>
        <rect fill="#0000ff" height="19px" opacity="1" rx="10" ry="10" stroke="none" width="491px" x="2498" y="449.0"/>
        <text fill="black" style="font-size:22px; font-family:Courier New" x="3494" y="22.2">U22303_1</text>
        <text fill="black" style="font-size:22px; font-family:Courier New" x="3494" y="44.4">U94421_1</text>
        <text fill="black" style="font-size:22px; font-family:Courier New" x="3494" y="66.6">U44402_1</text>
        <text fill="black" style="font-size:22px; font-family:Courier New" x="3494" y="88.8">AB003289_1</text>
        <text fill="black" style="font-size:22px; font-family:Courier New" x="3494" y="111.0">AY196904_1</text>
        <text fill="black" style="font-size:22px; font-family:Courier New" x="3494" y="133.2">U45966_1</text>
        <text fill="black" style="font-size:22px; font-family:Courier New" x="3494" y="155.39999999999998">U63715_1</text>
        <text fill="black" style="font-size:22px; font-family:Courier New" x="3494" y="177.6">AY949771_1</text>
        <text fill="black" style="font-size:22px; font-family:Courier New" x="3494" y="199.79999999999998">AB003292_1</text>
        <text fill="black" style="font-size:22px; font-family:Courier New" x="3494" y="221.99999999999997">AB021287_1</text>
        <text fill="black" style="font-size:22px; font-family:Courier New" x="3494" y="244.2">AF070476_1</text>
        <text fill="black" style="font-size:22px; font-family:Courier New" x="3494" y="266.4">GU566734_1</text>
        <text fill="black" style="font-size:22px; font-family:Courier New" x="3494" y="288.59999999999997">GU566735_1</text>
        <text fill="black" style="font-size:22px; font-family:Courier New" x="3494" y="310.79999999999995">KC796088_1</text>
        <text fill="black" style="font-size:22px; font-family:Courier New" x="3494" y="333.0">KU351669_1</text>
        <text fill="black" style="font-size:22px; font-family:Courier New" x="3494" y="355.2">KC145265_1</text>
        <text fill="black" style="font-size:22px; font-family:Courier New" x="3494" y="377.4">KC410872_1</text>
        <text fill="black" style="font-size:22px; font-family:Courier New" x="3494" y="399.59999999999997">KC796080_1</text>
        <text fill="black" style="font-size:22px; font-family:Courier New" x="3494" y="421.79999999999995">KC815311_1</text>
        <text fill="black" style="font-size:22px; font-family:Courier New" x="3494" y="444.0">KC796076_1</text>
        <text fill="black" style="font-size:22px; font-family:Courier New" x="3494" y="466.2">KT439329_1</text>
        <rect fill="#0000ff" height="19px" stroke="none" width="19px" x="5" y="493.2"/>
        <text fill="black" style="font-size:18px; font-family:Courier New" x="29.2" y="510.4">21</text>
        <text fill="black" style="font-size:18px; font-family:Courier New; font-weight:bold" x="72.37" y="510.4">RdRP_3</text>
        <text fill="black" style="font-size:18px; font-family:Courier New" x="259.44" y="510.4">Viral RNA dependent RNA polymerase</text>
        <rect fill="#00ff00" height="19px" stroke="none" width="19px" x="5" y="515.4"/>
        <text fill="black" style="font-size:18px; font-family:Courier New" x="29.2" y="532.6">21</text>
        <text fill="black" style="font-size:18px; font-family:Courier New; font-weight:bold" x="72.37" y="532.6">HCV_NS4b</text>
        <text fill="black" style="font-size:18px; font-family:Courier New" x="259.44" y="532.6">Hepatitis C virus non-structural protein NS4b</text>
        <rect fill="#ff0000" height="19px" stroke="none" width="19px" x="5" y="537.6"/>
        <text fill="black" style="font-size:18px; font-family:Courier New" x="29.2" y="554.8000000000001">21</text>
        <text fill="black" style="font-size:18px; font-family:Courier New; font-weight:bold" x="72.37" y="554.8000000000001">Peptidase_S29</text>
        <text fill="black" style="font-size:18px; font-family:Courier New" x="259.44" y="554.8000000000001">Hepatitis C virus NS3 protease</text>
        <rect fill="#00ffff" height="19px" stroke="none" width="19px" x="5" y="559.8"/>
        <text fill="black" style="font-size:18px; font-family:Courier New" x="29.2" y="577.0">21</text>
        <text fill="black" style="font-size:18px; font-family:Courier New; font-weight:bold" x="72.37" y="577.0">HCV_NS2</text>
        <text fill="black" style="font-size:18px; font-family:Courier New" x="259.44" y="577.0">Hepatitis C virus non-structural protein NS2</text>
        <rect fill="#ff00ff" height="19px" stroke="none" width="19px" x="5" y="582.0"/>
        <text fill="black" style="font-size:18px; font-family:Courier New" x="29.2" y="599.2">18</text>
        <text fill="black" style="font-size:18px; font-family:Courier New; font-weight:bold" x="72.37" y="599.2">HCV_NS5a_1a</text>
        <text fill="black" style="font-size:18px; font-family:Courier New" x="259.44" y="599.2">Hepatitis C virus non-structural 5a zinc finger domain</text>
        <rect fill="#ffff00" height="19px" stroke="none" width="19px" x="5" y="604.2"/>
        <text fill="black" style="font-size:18px; font-family:Courier New" x="29.2" y="621.4000000000001">17</text>
        <text fill="black" style="font-size:18px; font-family:Courier New; font-weight:bold" x="72.37" y="621.4000000000001">HCV_NS5a_1b</text>
        <text fill="black" style="font-size:18px; font-family:Courier New" x="259.44" y="621.4000000000001">Hepatitis C virus non-structural 5a domain 1b</text>
        <rect fill="#000080" height="19px" stroke="none" width="19px" x="5" y="626.4"/>
        <text fill="black" style="font-size:18px; font-family:Courier New" x="29.2" y="643.6">16</text>
        <text fill="black" style="font-size:18px; font-family:Courier New; font-weight:bold" x="72.37" y="643.6">GBV-C_env</text>
        <text fill="black" style="font-size:18px; font-family:Courier New" x="259.44" y="643.6">GB virus C genotype envelope</text>
        <rect fill="#008000" height="19px" stroke="none" width="19px" x="5" y="648.6"/>
        <text fill="black" style="font-size:18px; font-family:Courier New" x="29.2" y="665.8000000000001">16</text>
        <text fill="black" style="font-size:18px; font-family:Courier New; font-weight:bold" x="72.37" y="665.8000000000001">HCV_NS4a</text>
        <text fill="black" style="font-size:18px; font-family:Courier New" x="259.44" y="665.8000000000001">Hepatitis C virus non-structural protein NS4a</text>
        <rect fill="#800000" height="19px" stroke="none" width="19px" x="5" y="670.8"/>
        <text fill="black" style="font-size:18px; font-family:Courier New" x="29.2" y="688.0">11</text>
        <text fill="black" style="font-size:18px; font-family:Courier New; font-weight:bold" x="72.37" y="688.0">HCV_NS5a</text>
        <text fill="black" style="font-size:18px; font-family:Courier New" x="259.44" y="688.0">Hepatitis C virus non-structural 5a protein membrane anchor</text>
        <rect fill="#008080" height="19px" stroke="none" width="19px" x="5" y="693.0"/>
        <text fill="black" style="font-size:18px; font-family:Courier New" x="29.2" y="710.2">4</text>
        <text fill="black" style="font-size:18px; font-family:Courier New; font-weight:bold" x="72.37" y="710.2">Flavi_DEAD</text>
        <text fill="black" style="font-size:18px; font-family:Courier New" x="259.44" y="710.2">Flavivirus DEAD domain</text>
        <rect fill="#800080" height="19px" stroke="none" width="19px" x="5" y="715.2"/>
        <text fill="black" style="font-size:18px; font-family:Courier New" x="29.2" y="732.4000000000001">2</text>
        <text fill="black" style="font-size:18px; font-family:Courier New; font-weight:bold" x="72.37" y="732.4000000000001">DUF3640</text>
        <text fill="black" style="font-size:18px; font-family:Courier New" x="259.44" y="732.4000000000001">Protein of unknown function (DUF3640)</text>
        <rect fill="#808000" height="19px" stroke="none" width="19px" x="5" y="737.4"/>
        <text fill="black" style="font-size:18px; font-family:Courier New" x="29.2" y="754.6">1</text>
        <text fill="black" style="font-size:18px; font-family:Courier New; font-weight:bold" x="72.37" y="754.6">DEAD</text>
        <text fill="black" style="font-size:18px; font-family:Courier New" x="259.44" y="754.6">DEAD/DEAH box helicase</text>
    </g>
</svg>
